# xmcd CD database file
#
# Track frame offsets:
#	200
#	24872
#	44450
#	66475
#	89430
#	111237
#	132965
#	156310
#	174845
#	195452
#	215845
#	250190
#	268575
#
# Disc length: 3841 seconds
#
# Revision: 2
# Processed by: cddbd v1.4b41PL1 Copyright (c) Steve Scherf et al.
# Submitted via: Feurio! 1.60 - http://www.feurio.com
#
DISCID=b90eff0d,d30eff0d
DTITLE=52nd Street - Something's Going On
DYEAR=1900
DGENRE=
TTITLE0=I'll Return
TTITLE1=I Do I Do
TTITLE2=Something's Going On
TTITLE3=Seven
TTITLE4=What Did I Do Wrong?
TTITLE5=Are You Receiving Me?
TTITLE6=Tomorrow
TTITLE7=Memories
TTITLE8=Something To Remind Me
TTITLE9=Tell The Truth
TTITLE10=I'll Return
TTITLE11=Jamaica Boy
TTITLE12=Make Up Your Mind
EXTD=
EXTT0=
EXTT1=
EXTT2=
EXTT3=
EXTT4=
EXTT5=
EXTT6=
EXTT7=
EXTT8=
EXTT9=
EXTT10=
EXTT11=
EXTT12=
PLAYORDER=
